ISO-10303-21;
HEADER;
FILE_DESCRIPTION(('box'),'2;1');
FILE_NAME('box_assembly.step','2026-10-03T14:50:00',(''),(''),'','','');
FILE_SCHEMA(('AUTOMOTIVE_DESIGN { 1 0 10303 214 1 1 1 1 }'));
ENDSEC;
DATA;
#1 = APPLICATION_CONTEXT('core data for automotive mechanical design processes');
#2 = APPLICATION_PROTOCOL_DEFINITION('international standard','automotive_design',2000,#1);
#3 = PRODUCT_CONTEXT('',#1,'mechanical');
#4 = PRODUCT_DEFINITION_CONTEXT('part definition',#1,'design');
#5 = ( LENGTH_UNIT() NAMED_UNIT(*) SI_UNIT(.MILLI.,.METRE.) );
#6 = ( NAMED_UNIT(*) PLANE_ANGLE_UNIT() SI_UNIT($,.RADIAN.) );
#7 = ( NAMED_UNIT(*) SI_UNIT($,.STERADIAN.) SOLID_ANGLE_UNIT() );
#8 = UNCERTAINTY_MEASURE_WITH_UNIT(LENGTH_MEASURE(1.E-07),#5,'distance_accuracy_value','confusion accuracy');
#9 = ( GEOMETRIC_REPRESENTATION_CONTEXT(3) GLOBAL_UNCERTAINTY_ASSIGNED_CONTEXT((#8)) GLOBAL_UNIT_ASSIGNED_CONTEXT((#5,#6,#7)) REPRESENTATION_CONTEXT('Context #1','3D Context with UNIT and UNCERTAINTY') );
#10 = CARTESIAN_POINT('',(0.,0.,0.));
#11 = DIRECTION('',(0.,0.,1.));
#12 = DIRECTION('',(1.,0.,0.));
#13 = AXIS2_PLACEMENT_3D('',#10,#11,#12);
#14 = CARTESIAN_POINT('',(0.,0.,0.));
#15 = DIRECTION('',(0.,0.,1.));
#16 = DIRECTION('',(1.,0.,0.));
#17 = AXIS2_PLACEMENT_3D('',#14,#15,#16);
#18 = CARTESIAN_POINT('',(0.,0.,0.));
#19 = DIRECTION('',(0.,0.,1.));
#20 = DIRECTION('',(1.,0.,0.));
#21 = AXIS2_PLACEMENT_3D('',#18,#19,#20);
#22 = PRODUCT('box_assembly','box_assembly','',(#3));
#23 = PRODUCT_RELATED_PRODUCT_CATEGORY('part',$,(#22));
#24 = PRODUCT_DEFINITION_FORMATION('','',#22);
#25 = PRODUCT_DEFINITION('design','',#24,#4);
#26 = PRODUCT_DEFINITION_SHAPE('','',#25);
#27 = SHAPE_REPRESENTATION('',(#21,#13,#17),#9);
#28 = SHAPE_DEFINITION_REPRESENTATION(#26,#27);
#29 = CARTESIAN_POINT('',(0.,0.,0.));
#30 = DIRECTION('',(0.,0.,1.));
#31 = DIRECTION('',(1.,0.,0.));
#32 = AXIS2_PLACEMENT_3D('',#29,#30,#31);
#33 = CARTESIAN_POINT('',(192.,0.,25.));
#34 = DIRECTION('',(0.,1.,0.));
#35 = DIRECTION('',(1.,0.,0.));
#36 = AXIS2_PLACEMENT_3D('',#33,#34,#35);
#37 = CIRCLE('',#36,5.);
#38 = CARTESIAN_POINT('',(197.,0.,25.));
#39 = VERTEX_POINT('',#38);
#40 = EDGE_CURVE('',#39,#39,#37,.T.);
#41 = CARTESIAN_POINT('',(192.,5.,25.));
#42 = AXIS2_PLACEMENT_3D('',#41,#34,#35);
#43 = CIRCLE('',#42,5.);
#44 = CARTESIAN_POINT('',(197.,5.,25.));
#45 = VERTEX_POINT('',#44);
#46 = EDGE_CURVE('',#45,#45,#43,.T.);
#47 = CARTESIAN_POINT('',(0.,104.,0.));
#48 = VECTOR('',#35,1.);
#49 = LINE('',#47,#48);
#50 = VERTEX_POINT('',#47);
#51 = CARTESIAN_POINT('',(212.,104.,0.));
#52 = VERTEX_POINT('',#51);
#53 = EDGE_CURVE('',#50,#52,#49,.T.);
#54 = ORIENTED_EDGE('',*,*,#53,.T.);
#55 = DIRECTION('',(0.,-1.,0.));
#56 = VECTOR('',#55,1.);
#57 = LINE('',#51,#56);
#58 = CARTESIAN_POINT('',(212.,0.,0.));
#59 = VERTEX_POINT('',#58);
#60 = EDGE_CURVE('',#52,#59,#57,.T.);
#61 = ORIENTED_EDGE('',*,*,#60,.T.);
#62 = DIRECTION('',(-1.,0.,0.));
#63 = VECTOR('',#62,1.);
#64 = LINE('',#58,#63);
#65 = CARTESIAN_POINT('',(0.,0.,0.));
#66 = VERTEX_POINT('',#65);
#67 = EDGE_CURVE('',#59,#66,#64,.T.);
#68 = ORIENTED_EDGE('',*,*,#67,.T.);
#69 = VECTOR('',#34,1.);
#70 = LINE('',#65,#69);
#71 = EDGE_CURVE('',#66,#50,#70,.T.);
#72 = ORIENTED_EDGE('',*,*,#71,.T.);
#73 = EDGE_LOOP('',(#54,#61,#68,#72));
#74 = FACE_OUTER_BOUND('',#73,.T.);
#75 = DIRECTION('',(0.,0.,-1.));
#76 = AXIS2_PLACEMENT_3D('',#65,#75,#35);
#77 = PLANE('',#76);
#78 = ADVANCED_FACE('',(#74),#77,.T.);
#79 = ORIENTED_EDGE('',*,*,#67,.F.);
#80 = DIRECTION('',(0.,0.,1.));
#81 = VECTOR('',#80,1.);
#82 = LINE('',#58,#81);
#83 = CARTESIAN_POINT('',(212.,0.,50.));
#84 = VERTEX_POINT('',#83);
#85 = EDGE_CURVE('',#59,#84,#82,.T.);
#86 = ORIENTED_EDGE('',*,*,#85,.T.);
#87 = VECTOR('',#62,1.);
#88 = LINE('',#83,#87);
#89 = CARTESIAN_POINT('',(0.,0.,50.));
#90 = VERTEX_POINT('',#89);
#91 = EDGE_CURVE('',#84,#90,#88,.T.);
#92 = ORIENTED_EDGE('',*,*,#91,.T.);
#93 = VECTOR('',#75,1.);
#94 = LINE('',#89,#93);
#95 = EDGE_CURVE('',#90,#66,#94,.T.);
#96 = ORIENTED_EDGE('',*,*,#95,.T.);
#97 = EDGE_LOOP('',(#79,#86,#92,#96));
#98 = FACE_OUTER_BOUND('',#97,.T.);
#99 = CARTESIAN_POINT('',(15.,0.,30.));
#100 = VECTOR('',#35,1.);
#101 = LINE('',#99,#100);
#102 = VERTEX_POINT('',#99);
#103 = CARTESIAN_POINT('',(25.,0.,30.));
#104 = VERTEX_POINT('',#103);
#105 = EDGE_CURVE('',#102,#104,#101,.T.);
#106 = ORIENTED_EDGE('',*,*,#105,.T.);
#107 = VECTOR('',#75,1.);
#108 = LINE('',#103,#107);
#109 = CARTESIAN_POINT('',(25.,0.,20.));
#110 = VERTEX_POINT('',#109);
#111 = EDGE_CURVE('',#104,#110,#108,.T.);
#112 = ORIENTED_EDGE('',*,*,#111,.T.);
#113 = VECTOR('',#62,1.);
#114 = LINE('',#109,#113);
#115 = CARTESIAN_POINT('',(15.,0.,20.));
#116 = VERTEX_POINT('',#115);
#117 = EDGE_CURVE('',#110,#116,#114,.T.);
#118 = ORIENTED_EDGE('',*,*,#117,.T.);
#119 = VECTOR('',#80,1.);
#120 = LINE('',#115,#119);
#121 = EDGE_CURVE('',#116,#102,#120,.T.);
#122 = ORIENTED_EDGE('',*,*,#121,.T.);
#123 = EDGE_LOOP('',(#106,#112,#118,#122));
#124 = FACE_BOUND('',#123,.T.);
#125 = ORIENTED_EDGE('',*,*,#40,.T.);
#126 = EDGE_LOOP('',(#125));
#127 = FACE_BOUND('',#126,.T.);
#128 = AXIS2_PLACEMENT_3D('',#65,#55,#35);
#129 = PLANE('',#128);
#130 = ADVANCED_FACE('',(#98,#124,#127),#129,.T.);
#131 = CARTESIAN_POINT('',(0.,104.,50.));
#132 = VECTOR('',#35,1.);
#133 = LINE('',#131,#132);
#134 = VERTEX_POINT('',#131);
#135 = CARTESIAN_POINT('',(212.,104.,50.));
#136 = VERTEX_POINT('',#135);
#137 = EDGE_CURVE('',#134,#136,#133,.T.);
#138 = ORIENTED_EDGE('',*,*,#137,.T.);
#139 = VECTOR('',#75,1.);
#140 = LINE('',#135,#139);
#141 = EDGE_CURVE('',#136,#52,#140,.T.);
#142 = ORIENTED_EDGE('',*,*,#141,.T.);
#143 = ORIENTED_EDGE('',*,*,#53,.F.);
#144 = VECTOR('',#80,1.);
#145 = LINE('',#47,#144);
#146 = EDGE_CURVE('',#50,#134,#145,.T.);
#147 = ORIENTED_EDGE('',*,*,#146,.T.);
#148 = EDGE_LOOP('',(#138,#142,#143,#147));
#149 = FACE_OUTER_BOUND('',#148,.T.);
#150 = AXIS2_PLACEMENT_3D('',#47,#34,#35);
#151 = PLANE('',#150);
#152 = ADVANCED_FACE('',(#149),#151,.T.);
#153 = VECTOR('',#34,1.);
#154 = LINE('',#89,#153);
#155 = EDGE_CURVE('',#90,#134,#154,.T.);
#156 = ORIENTED_EDGE('',*,*,#155,.T.);
#157 = ORIENTED_EDGE('',*,*,#146,.F.);
#158 = ORIENTED_EDGE('',*,*,#71,.F.);
#159 = ORIENTED_EDGE('',*,*,#95,.F.);
#160 = EDGE_LOOP('',(#156,#157,#158,#159));
#161 = FACE_OUTER_BOUND('',#160,.T.);
#162 = AXIS2_PLACEMENT_3D('',#65,#62,#34);
#163 = PLANE('',#162);
#164 = ADVANCED_FACE('',(#161),#163,.T.);
#165 = ORIENTED_EDGE('',*,*,#60,.F.);
#166 = ORIENTED_EDGE('',*,*,#141,.F.);
#167 = VECTOR('',#55,1.);
#168 = LINE('',#135,#167);
#169 = EDGE_CURVE('',#136,#84,#168,.T.);
#170 = ORIENTED_EDGE('',*,*,#169,.T.);
#171 = ORIENTED_EDGE('',*,*,#85,.F.);
#172 = EDGE_LOOP('',(#165,#166,#170,#171));
#173 = FACE_OUTER_BOUND('',#172,.T.);
#174 = AXIS2_PLACEMENT_3D('',#58,#35,#34);
#175 = PLANE('',#174);
#176 = ADVANCED_FACE('',(#173),#175,.T.);
#177 = ORIENTED_EDGE('',*,*,#91,.F.);
#178 = ORIENTED_EDGE('',*,*,#169,.F.);
#179 = ORIENTED_EDGE('',*,*,#137,.F.);
#180 = ORIENTED_EDGE('',*,*,#155,.F.);
#181 = EDGE_LOOP('',(#177,#178,#179,#180));
#182 = FACE_OUTER_BOUND('',#181,.T.);
#183 = CARTESIAN_POINT('',(3.,101.,50.));
#184 = VECTOR('',#35,1.);
#185 = LINE('',#183,#184);
#186 = VERTEX_POINT('',#183);
#187 = CARTESIAN_POINT('',(209.,101.,50.));
#188 = VERTEX_POINT('',#187);
#189 = EDGE_CURVE('',#186,#188,#185,.T.);
#190 = ORIENTED_EDGE('',*,*,#189,.T.);
#191 = VECTOR('',#55,1.);
#192 = LINE('',#187,#191);
#193 = CARTESIAN_POINT('',(209.,3.,50.));
#194 = VERTEX_POINT('',#193);
#195 = EDGE_CURVE('',#188,#194,#192,.T.);
#196 = ORIENTED_EDGE('',*,*,#195,.T.);
#197 = VECTOR('',#62,1.);
#198 = LINE('',#193,#197);
#199 = CARTESIAN_POINT('',(3.,3.,50.));
#200 = VERTEX_POINT('',#199);
#201 = EDGE_CURVE('',#194,#200,#198,.T.);
#202 = ORIENTED_EDGE('',*,*,#201,.T.);
#203 = VECTOR('',#34,1.);
#204 = LINE('',#199,#203);
#205 = EDGE_CURVE('',#200,#186,#204,.T.);
#206 = ORIENTED_EDGE('',*,*,#205,.T.);
#207 = EDGE_LOOP('',(#190,#196,#202,#206));
#208 = FACE_BOUND('',#207,.T.);
#209 = AXIS2_PLACEMENT_3D('',#89,#80,#35);
#210 = PLANE('',#209);
#211 = ADVANCED_FACE('',(#182,#208),#210,.T.);
#212 = ORIENTED_EDGE('',*,*,#201,.F.);
#213 = VECTOR('',#80,1.);
#214 = LINE('',#193,#213);
#215 = CARTESIAN_POINT('',(209.,3.,55.));
#216 = VERTEX_POINT('',#215);
#217 = EDGE_CURVE('',#194,#216,#214,.T.);
#218 = ORIENTED_EDGE('',*,*,#217,.T.);
#219 = VECTOR('',#62,1.);
#220 = LINE('',#215,#219);
#221 = CARTESIAN_POINT('',(3.,3.,55.));
#222 = VERTEX_POINT('',#221);
#223 = EDGE_CURVE('',#216,#222,#220,.T.);
#224 = ORIENTED_EDGE('',*,*,#223,.T.);
#225 = VECTOR('',#75,1.);
#226 = LINE('',#221,#225);
#227 = EDGE_CURVE('',#222,#200,#226,.T.);
#228 = ORIENTED_EDGE('',*,*,#227,.T.);
#229 = EDGE_LOOP('',(#212,#218,#224,#228));
#230 = FACE_OUTER_BOUND('',#229,.T.);
#231 = AXIS2_PLACEMENT_3D('',#199,#55,#35);
#232 = PLANE('',#231);
#233 = ADVANCED_FACE('',(#230),#232,.T.);
#234 = CARTESIAN_POINT('',(3.,101.,55.));
#235 = VECTOR('',#35,1.);
#236 = LINE('',#234,#235);
#237 = VERTEX_POINT('',#234);
#238 = CARTESIAN_POINT('',(209.,101.,55.));
#239 = VERTEX_POINT('',#238);
#240 = EDGE_CURVE('',#237,#239,#236,.T.);
#241 = ORIENTED_EDGE('',*,*,#240,.T.);
#242 = VECTOR('',#75,1.);
#243 = LINE('',#238,#242);
#244 = EDGE_CURVE('',#239,#188,#243,.T.);
#245 = ORIENTED_EDGE('',*,*,#244,.T.);
#246 = ORIENTED_EDGE('',*,*,#189,.F.);
#247 = VECTOR('',#80,1.);
#248 = LINE('',#183,#247);
#249 = EDGE_CURVE('',#186,#237,#248,.T.);
#250 = ORIENTED_EDGE('',*,*,#249,.T.);
#251 = EDGE_LOOP('',(#241,#245,#246,#250));
#252 = FACE_OUTER_BOUND('',#251,.T.);
#253 = AXIS2_PLACEMENT_3D('',#183,#34,#35);
#254 = PLANE('',#253);
#255 = ADVANCED_FACE('',(#252),#254,.T.);
#256 = VECTOR('',#34,1.);
#257 = LINE('',#221,#256);
#258 = EDGE_CURVE('',#222,#237,#257,.T.);
#259 = ORIENTED_EDGE('',*,*,#258,.T.);
#260 = ORIENTED_EDGE('',*,*,#249,.F.);
#261 = ORIENTED_EDGE('',*,*,#205,.F.);
#262 = ORIENTED_EDGE('',*,*,#227,.F.);
#263 = EDGE_LOOP('',(#259,#260,#261,#262));
#264 = FACE_OUTER_BOUND('',#263,.T.);
#265 = AXIS2_PLACEMENT_3D('',#199,#62,#34);
#266 = PLANE('',#265);
#267 = ADVANCED_FACE('',(#264),#266,.T.);
#268 = ORIENTED_EDGE('',*,*,#195,.F.);
#269 = ORIENTED_EDGE('',*,*,#244,.F.);
#270 = VECTOR('',#55,1.);
#271 = LINE('',#238,#270);
#272 = EDGE_CURVE('',#239,#216,#271,.T.);
#273 = ORIENTED_EDGE('',*,*,#272,.T.);
#274 = ORIENTED_EDGE('',*,*,#217,.F.);
#275 = EDGE_LOOP('',(#268,#269,#273,#274));
#276 = FACE_OUTER_BOUND('',#275,.T.);
#277 = AXIS2_PLACEMENT_3D('',#193,#35,#34);
#278 = PLANE('',#277);
#279 = ADVANCED_FACE('',(#276),#278,.T.);
#280 = ORIENTED_EDGE('',*,*,#223,.F.);
#281 = ORIENTED_EDGE('',*,*,#272,.F.);
#282 = ORIENTED_EDGE('',*,*,#240,.F.);
#283 = ORIENTED_EDGE('',*,*,#258,.F.);
#284 = EDGE_LOOP('',(#280,#281,#282,#283));
#285 = FACE_OUTER_BOUND('',#284,.T.);
#286 = CARTESIAN_POINT('',(5.,99.,55.));
#287 = VECTOR('',#35,1.);
#288 = LINE('',#286,#287);
#289 = VERTEX_POINT('',#286);
#290 = CARTESIAN_POINT('',(207.,99.,55.));
#291 = VERTEX_POINT('',#290);
#292 = EDGE_CURVE('',#289,#291,#288,.T.);
#293 = ORIENTED_EDGE('',*,*,#292,.T.);
#294 = VECTOR('',#55,1.);
#295 = LINE('',#290,#294);
#296 = CARTESIAN_POINT('',(207.,5.,55.));
#297 = VERTEX_POINT('',#296);
#298 = EDGE_CURVE('',#291,#297,#295,.T.);
#299 = ORIENTED_EDGE('',*,*,#298,.T.);
#300 = VECTOR('',#62,1.);
#301 = LINE('',#296,#300);
#302 = CARTESIAN_POINT('',(5.,5.,55.));
#303 = VERTEX_POINT('',#302);
#304 = EDGE_CURVE('',#297,#303,#301,.T.);
#305 = ORIENTED_EDGE('',*,*,#304,.T.);
#306 = VECTOR('',#34,1.);
#307 = LINE('',#302,#306);
#308 = EDGE_CURVE('',#303,#289,#307,.T.);
#309 = ORIENTED_EDGE('',*,*,#308,.T.);
#310 = EDGE_LOOP('',(#293,#299,#305,#309));
#311 = FACE_BOUND('',#310,.T.);
#312 = AXIS2_PLACEMENT_3D('',#221,#80,#35);
#313 = PLANE('',#312);
#314 = ADVANCED_FACE('',(#285,#311),#313,.T.);
#315 = ORIENTED_EDGE('',*,*,#304,.F.);
#316 = VECTOR('',#75,1.);
#317 = LINE('',#296,#316);
#318 = CARTESIAN_POINT('',(207.,5.,5.));
#319 = VERTEX_POINT('',#318);
#320 = EDGE_CURVE('',#297,#319,#317,.T.);
#321 = ORIENTED_EDGE('',*,*,#320,.T.);
#322 = VECTOR('',#62,1.);
#323 = LINE('',#318,#322);
#324 = CARTESIAN_POINT('',(5.,5.,5.));
#325 = VERTEX_POINT('',#324);
#326 = EDGE_CURVE('',#319,#325,#323,.T.);
#327 = ORIENTED_EDGE('',*,*,#326,.T.);
#328 = VECTOR('',#80,1.);
#329 = LINE('',#324,#328);
#330 = EDGE_CURVE('',#325,#303,#329,.T.);
#331 = ORIENTED_EDGE('',*,*,#330,.T.);
#332 = EDGE_LOOP('',(#315,#321,#327,#331));
#333 = FACE_OUTER_BOUND('',#332,.T.);
#334 = CARTESIAN_POINT('',(15.,5.,20.));
#335 = VECTOR('',#35,1.);
#336 = LINE('',#334,#335);
#337 = VERTEX_POINT('',#334);
#338 = CARTESIAN_POINT('',(25.,5.,20.));
#339 = VERTEX_POINT('',#338);
#340 = EDGE_CURVE('',#337,#339,#336,.T.);
#341 = ORIENTED_EDGE('',*,*,#340,.T.);
#342 = VECTOR('',#80,1.);
#343 = LINE('',#338,#342);
#344 = CARTESIAN_POINT('',(25.,5.,30.));
#345 = VERTEX_POINT('',#344);
#346 = EDGE_CURVE('',#339,#345,#343,.T.);
#347 = ORIENTED_EDGE('',*,*,#346,.T.);
#348 = VECTOR('',#62,1.);
#349 = LINE('',#344,#348);
#350 = CARTESIAN_POINT('',(15.,5.,30.));
#351 = VERTEX_POINT('',#350);
#352 = EDGE_CURVE('',#345,#351,#349,.T.);
#353 = ORIENTED_EDGE('',*,*,#352,.T.);
#354 = VECTOR('',#75,1.);
#355 = LINE('',#350,#354);
#356 = EDGE_CURVE('',#351,#337,#355,.T.);
#357 = ORIENTED_EDGE('',*,*,#356,.T.);
#358 = EDGE_LOOP('',(#341,#347,#353,#357));
#359 = FACE_BOUND('',#358,.T.);
#360 = ORIENTED_EDGE('',*,*,#46,.F.);
#361 = EDGE_LOOP('',(#360));
#362 = FACE_BOUND('',#361,.T.);
#363 = AXIS2_PLACEMENT_3D('',#324,#34,#35);
#364 = PLANE('',#363);
#365 = ADVANCED_FACE('',(#333,#359,#362),#364,.T.);
#366 = CARTESIAN_POINT('',(5.,99.,5.));
#367 = VECTOR('',#35,1.);
#368 = LINE('',#366,#367);
#369 = VERTEX_POINT('',#366);
#370 = CARTESIAN_POINT('',(207.,99.,5.));
#371 = VERTEX_POINT('',#370);
#372 = EDGE_CURVE('',#369,#371,#368,.T.);
#373 = ORIENTED_EDGE('',*,*,#372,.T.);
#374 = VECTOR('',#80,1.);
#375 = LINE('',#370,#374);
#376 = EDGE_CURVE('',#371,#291,#375,.T.);
#377 = ORIENTED_EDGE('',*,*,#376,.T.);
#378 = ORIENTED_EDGE('',*,*,#292,.F.);
#379 = VECTOR('',#75,1.);
#380 = LINE('',#286,#379);
#381 = EDGE_CURVE('',#289,#369,#380,.T.);
#382 = ORIENTED_EDGE('',*,*,#381,.T.);
#383 = EDGE_LOOP('',(#373,#377,#378,#382));
#384 = FACE_OUTER_BOUND('',#383,.T.);
#385 = AXIS2_PLACEMENT_3D('',#366,#55,#35);
#386 = PLANE('',#385);
#387 = ADVANCED_FACE('',(#384),#386,.T.);
#388 = VECTOR('',#34,1.);
#389 = LINE('',#324,#388);
#390 = EDGE_CURVE('',#325,#369,#389,.T.);
#391 = ORIENTED_EDGE('',*,*,#390,.T.);
#392 = ORIENTED_EDGE('',*,*,#381,.F.);
#393 = ORIENTED_EDGE('',*,*,#308,.F.);
#394 = ORIENTED_EDGE('',*,*,#330,.F.);
#395 = EDGE_LOOP('',(#391,#392,#393,#394));
#396 = FACE_OUTER_BOUND('',#395,.T.);
#397 = AXIS2_PLACEMENT_3D('',#324,#35,#34);
#398 = PLANE('',#397);
#399 = ADVANCED_FACE('',(#396),#398,.T.);
#400 = ORIENTED_EDGE('',*,*,#298,.F.);
#401 = ORIENTED_EDGE('',*,*,#376,.F.);
#402 = VECTOR('',#55,1.);
#403 = LINE('',#370,#402);
#404 = EDGE_CURVE('',#371,#319,#403,.T.);
#405 = ORIENTED_EDGE('',*,*,#404,.T.);
#406 = ORIENTED_EDGE('',*,*,#320,.F.);
#407 = EDGE_LOOP('',(#400,#401,#405,#406));
#408 = FACE_OUTER_BOUND('',#407,.T.);
#409 = AXIS2_PLACEMENT_3D('',#318,#62,#34);
#410 = PLANE('',#409);
#411 = ADVANCED_FACE('',(#408),#410,.T.);
#412 = ORIENTED_EDGE('',*,*,#326,.F.);
#413 = ORIENTED_EDGE('',*,*,#404,.F.);
#414 = ORIENTED_EDGE('',*,*,#372,.F.);
#415 = ORIENTED_EDGE('',*,*,#390,.F.);
#416 = EDGE_LOOP('',(#412,#413,#414,#415));
#417 = FACE_OUTER_BOUND('',#416,.T.);
#418 = AXIS2_PLACEMENT_3D('',#324,#80,#35);
#419 = PLANE('',#418);
#420 = ADVANCED_FACE('',(#417),#419,.T.);
#421 = VECTOR('',#34,1.);
#422 = LINE('',#115,#421);
#423 = EDGE_CURVE('',#116,#337,#422,.T.);
#424 = ORIENTED_EDGE('',*,*,#423,.T.);
#425 = ORIENTED_EDGE('',*,*,#356,.F.);
#426 = VECTOR('',#55,1.);
#427 = LINE('',#350,#426);
#428 = EDGE_CURVE('',#351,#102,#427,.T.);
#429 = ORIENTED_EDGE('',*,*,#428,.T.);
#430 = ORIENTED_EDGE('',*,*,#121,.F.);
#431 = EDGE_LOOP('',(#424,#425,#429,#430));
#432 = FACE_OUTER_BOUND('',#431,.T.);
#433 = AXIS2_PLACEMENT_3D('',#115,#35,#34);
#434 = PLANE('',#433);
#435 = ADVANCED_FACE('',(#432),#434,.T.);
#436 = VECTOR('',#34,1.);
#437 = LINE('',#103,#436);
#438 = EDGE_CURVE('',#104,#345,#437,.T.);
#439 = ORIENTED_EDGE('',*,*,#438,.T.);
#440 = ORIENTED_EDGE('',*,*,#346,.F.);
#441 = VECTOR('',#55,1.);
#442 = LINE('',#338,#441);
#443 = EDGE_CURVE('',#339,#110,#442,.T.);
#444 = ORIENTED_EDGE('',*,*,#443,.T.);
#445 = ORIENTED_EDGE('',*,*,#111,.F.);
#446 = EDGE_LOOP('',(#439,#440,#444,#445));
#447 = FACE_OUTER_BOUND('',#446,.T.);
#448 = AXIS2_PLACEMENT_3D('',#109,#62,#34);
#449 = PLANE('',#448);
#450 = ADVANCED_FACE('',(#447),#449,.T.);
#451 = ORIENTED_EDGE('',*,*,#117,.F.);
#452 = ORIENTED_EDGE('',*,*,#443,.F.);
#453 = ORIENTED_EDGE('',*,*,#340,.F.);
#454 = ORIENTED_EDGE('',*,*,#423,.F.);
#455 = EDGE_LOOP('',(#451,#452,#453,#454));
#456 = FACE_OUTER_BOUND('',#455,.T.);
#457 = AXIS2_PLACEMENT_3D('',#115,#80,#35);
#458 = PLANE('',#457);
#459 = ADVANCED_FACE('',(#456),#458,.T.);
#460 = ORIENTED_EDGE('',*,*,#352,.F.);
#461 = ORIENTED_EDGE('',*,*,#438,.F.);
#462 = ORIENTED_EDGE('',*,*,#105,.F.);
#463 = ORIENTED_EDGE('',*,*,#428,.F.);
#464 = EDGE_LOOP('',(#460,#461,#462,#463));
#465 = FACE_OUTER_BOUND('',#464,.T.);
#466 = AXIS2_PLACEMENT_3D('',#99,#75,#35);
#467 = PLANE('',#466);
#468 = ADVANCED_FACE('',(#465),#467,.T.);
#469 = VECTOR('',#34,1.);
#470 = LINE('',#38,#469);
#471 = EDGE_CURVE('',#39,#45,#470,.T.);
#472 = ORIENTED_EDGE('',*,*,#471,.T.);
#473 = ORIENTED_EDGE('',*,*,#46,.T.);
#474 = ORIENTED_EDGE('',*,*,#471,.F.);
#475 = ORIENTED_EDGE('',*,*,#40,.F.);
#476 = EDGE_LOOP('',(#472,#473,#474,#475));
#477 = AXIS2_PLACEMENT_3D('',#33,#34,#35);
#478 = CYLINDRICAL_SURFACE('',#477,5.);
#479 = FACE_OUTER_BOUND('',#476,.T.);
#480 = ADVANCED_FACE('',(#479),#478,.F.);
#481 = CLOSED_SHELL('',(#78,#130,#152,#164,#176,#211,#233,#255,#267,#279,#314,#365,#387,#399,#411,#420,#435,#450,#459,#468,#480));
#482 = MANIFOLD_SOLID_BREP('body',#481);
#483 = PRODUCT('box_body','box_body','',(#3));
#484 = PRODUCT_RELATED_PRODUCT_CATEGORY('part',$,(#483));
#485 = PRODUCT_DEFINITION_FORMATION('','',#483);
#486 = PRODUCT_DEFINITION('design','',#485,#4);
#487 = PRODUCT_DEFINITION_SHAPE('','',#486);
#488 = ADVANCED_BREP_SHAPE_REPRESENTATION('',(#32,#482),#9);
#489 = SHAPE_DEFINITION_REPRESENTATION(#487,#488);
#490 = ITEM_DEFINED_TRANSFORMATION('','',#32,#13);
#491 = ( REPRESENTATION_RELATIONSHIP('','',#488,#27) REPRESENTATION_RELATIONSHIP_WITH_TRANSFORMATION(#490) SHAPE_REPRESENTATION_RELATIONSHIP() );
#492 = NEXT_ASSEMBLY_USAGE_OCCURRENCE('1','box_body','',#25,#486,$);
#493 = PRODUCT_DEFINITION_SHAPE('Placement','Placement of an item',#492);
#494 = CONTEXT_DEPENDENT_SHAPE_REPRESENTATION(#491,#493);
#495 = CARTESIAN_POINT('',(0.,0.,0.));
#496 = DIRECTION('',(0.,0.,1.));
#497 = DIRECTION('',(1.,0.,0.));
#498 = AXIS2_PLACEMENT_3D('',#495,#496,#497);
#499 = CARTESIAN_POINT('',(0.,0.,60.));
#500 = DIRECTION('',(1.,0.,0.));
#501 = VECTOR('',#500,1.);
#502 = LINE('',#499,#501);
#503 = VERTEX_POINT('',#499);
#504 = CARTESIAN_POINT('',(212.,0.,60.));
#505 = VERTEX_POINT('',#504);
#506 = EDGE_CURVE('',#503,#505,#502,.T.);
#507 = ORIENTED_EDGE('',*,*,#506,.T.);
#508 = DIRECTION('',(0.,1.,0.));
#509 = VECTOR('',#508,1.);
#510 = LINE('',#504,#509);
#511 = CARTESIAN_POINT('',(212.,104.,60.));
#512 = VERTEX_POINT('',#511);
#513 = EDGE_CURVE('',#505,#512,#510,.T.);
#514 = ORIENTED_EDGE('',*,*,#513,.T.);
#515 = DIRECTION('',(-1.,0.,0.));
#516 = VECTOR('',#515,1.);
#517 = LINE('',#511,#516);
#518 = CARTESIAN_POINT('',(0.,104.,60.));
#519 = VERTEX_POINT('',#518);
#520 = EDGE_CURVE('',#512,#519,#517,.T.);
#521 = ORIENTED_EDGE('',*,*,#520,.T.);
#522 = DIRECTION('',(0.,-1.,0.));
#523 = VECTOR('',#522,1.);
#524 = LINE('',#518,#523);
#525 = EDGE_CURVE('',#519,#503,#524,.T.);
#526 = ORIENTED_EDGE('',*,*,#525,.T.);
#527 = EDGE_LOOP('',(#507,#514,#521,#526));
#528 = FACE_OUTER_BOUND('',#527,.T.);
#529 = DIRECTION('',(0.,0.,1.));
#530 = AXIS2_PLACEMENT_3D('',#499,#529,#500);
#531 = PLANE('',#530);
#532 = ADVANCED_FACE('',(#528),#531,.T.);
#533 = CARTESIAN_POINT('',(0.,0.,50.));
#534 = VECTOR('',#500,1.);
#535 = LINE('',#533,#534);
#536 = VERTEX_POINT('',#533);
#537 = CARTESIAN_POINT('',(212.,0.,50.));
#538 = VERTEX_POINT('',#537);
#539 = EDGE_CURVE('',#536,#538,#535,.T.);
#540 = ORIENTED_EDGE('',*,*,#539,.T.);
#541 = VECTOR('',#529,1.);
#542 = LINE('',#537,#541);
#543 = EDGE_CURVE('',#538,#505,#542,.T.);
#544 = ORIENTED_EDGE('',*,*,#543,.T.);
#545 = ORIENTED_EDGE('',*,*,#506,.F.);
#546 = DIRECTION('',(0.,0.,-1.));
#547 = VECTOR('',#546,1.);
#548 = LINE('',#499,#547);
#549 = EDGE_CURVE('',#503,#536,#548,.T.);
#550 = ORIENTED_EDGE('',*,*,#549,.T.);
#551 = EDGE_LOOP('',(#540,#544,#545,#550));
#552 = FACE_OUTER_BOUND('',#551,.T.);
#553 = AXIS2_PLACEMENT_3D('',#533,#522,#500);
#554 = PLANE('',#553);
#555 = ADVANCED_FACE('',(#552),#554,.T.);
#556 = ORIENTED_EDGE('',*,*,#520,.F.);
#557 = VECTOR('',#546,1.);
#558 = LINE('',#511,#557);
#559 = CARTESIAN_POINT('',(212.,104.,50.));
#560 = VERTEX_POINT('',#559);
#561 = EDGE_CURVE('',#512,#560,#558,.T.);
#562 = ORIENTED_EDGE('',*,*,#561,.T.);
#563 = VECTOR('',#515,1.);
#564 = LINE('',#559,#563);
#565 = CARTESIAN_POINT('',(0.,104.,50.));
#566 = VERTEX_POINT('',#565);
#567 = EDGE_CURVE('',#560,#566,#564,.T.);
#568 = ORIENTED_EDGE('',*,*,#567,.T.);
#569 = VECTOR('',#529,1.);
#570 = LINE('',#565,#569);
#571 = EDGE_CURVE('',#566,#519,#570,.T.);
#572 = ORIENTED_EDGE('',*,*,#571,.T.);
#573 = EDGE_LOOP('',(#556,#562,#568,#572));
#574 = FACE_OUTER_BOUND('',#573,.T.);
#575 = AXIS2_PLACEMENT_3D('',#565,#508,#500);
#576 = PLANE('',#575);
#577 = ADVANCED_FACE('',(#574),#576,.T.);
#578 = ORIENTED_EDGE('',*,*,#525,.F.);
#579 = ORIENTED_EDGE('',*,*,#571,.F.);
#580 = VECTOR('',#522,1.);
#581 = LINE('',#565,#580);
#582 = EDGE_CURVE('',#566,#536,#581,.T.);
#583 = ORIENTED_EDGE('',*,*,#582,.T.);
#584 = ORIENTED_EDGE('',*,*,#549,.F.);
#585 = EDGE_LOOP('',(#578,#579,#583,#584));
#586 = FACE_OUTER_BOUND('',#585,.T.);
#587 = AXIS2_PLACEMENT_3D('',#533,#515,#508);
#588 = PLANE('',#587);
#589 = ADVANCED_FACE('',(#586),#588,.T.);
#590 = VECTOR('',#508,1.);
#591 = LINE('',#537,#590);
#592 = EDGE_CURVE('',#538,#560,#591,.T.);
#593 = ORIENTED_EDGE('',*,*,#592,.T.);
#594 = ORIENTED_EDGE('',*,*,#561,.F.);
#595 = ORIENTED_EDGE('',*,*,#513,.F.);
#596 = ORIENTED_EDGE('',*,*,#543,.F.);
#597 = EDGE_LOOP('',(#593,#594,#595,#596));
#598 = FACE_OUTER_BOUND('',#597,.T.);
#599 = AXIS2_PLACEMENT_3D('',#537,#500,#508);
#600 = PLANE('',#599);
#601 = ADVANCED_FACE('',(#598),#600,.T.);
#602 = ORIENTED_EDGE('',*,*,#567,.F.);
#603 = ORIENTED_EDGE('',*,*,#592,.F.);
#604 = ORIENTED_EDGE('',*,*,#539,.F.);
#605 = ORIENTED_EDGE('',*,*,#582,.F.);
#606 = EDGE_LOOP('',(#602,#603,#604,#605));
#607 = FACE_OUTER_BOUND('',#606,.T.);
#608 = CARTESIAN_POINT('',(3.,3.,50.));
#609 = VECTOR('',#500,1.);
#610 = LINE('',#608,#609);
#611 = VERTEX_POINT('',#608);
#612 = CARTESIAN_POINT('',(209.,3.,50.));
#613 = VERTEX_POINT('',#612);
#614 = EDGE_CURVE('',#611,#613,#610,.T.);
#615 = ORIENTED_EDGE('',*,*,#614,.T.);
#616 = VECTOR('',#508,1.);
#617 = LINE('',#612,#616);
#618 = CARTESIAN_POINT('',(209.,101.,50.));
#619 = VERTEX_POINT('',#618);
#620 = EDGE_CURVE('',#613,#619,#617,.T.);
#621 = ORIENTED_EDGE('',*,*,#620,.T.);
#622 = VECTOR('',#515,1.);
#623 = LINE('',#618,#622);
#624 = CARTESIAN_POINT('',(3.,101.,50.));
#625 = VERTEX_POINT('',#624);
#626 = EDGE_CURVE('',#619,#625,#623,.T.);
#627 = ORIENTED_EDGE('',*,*,#626,.T.);
#628 = VECTOR('',#522,1.);
#629 = LINE('',#624,#628);
#630 = EDGE_CURVE('',#625,#611,#629,.T.);
#631 = ORIENTED_EDGE('',*,*,#630,.T.);
#632 = EDGE_LOOP('',(#615,#621,#627,#631));
#633 = FACE_BOUND('',#632,.T.);
#634 = AXIS2_PLACEMENT_3D('',#533,#546,#500);
#635 = PLANE('',#634);
#636 = ADVANCED_FACE('',(#607,#633),#635,.T.);
#637 = CARTESIAN_POINT('',(3.,3.,55.));
#638 = VECTOR('',#500,1.);
#639 = LINE('',#637,#638);
#640 = VERTEX_POINT('',#637);
#641 = CARTESIAN_POINT('',(209.,3.,55.));
#642 = VERTEX_POINT('',#641);
#643 = EDGE_CURVE('',#640,#642,#639,.T.);
#644 = ORIENTED_EDGE('',*,*,#643,.T.);
#645 = VECTOR('',#546,1.);
#646 = LINE('',#641,#645);
#647 = EDGE_CURVE('',#642,#613,#646,.T.);
#648 = ORIENTED_EDGE('',*,*,#647,.T.);
#649 = ORIENTED_EDGE('',*,*,#614,.F.);
#650 = VECTOR('',#529,1.);
#651 = LINE('',#608,#650);
#652 = EDGE_CURVE('',#611,#640,#651,.T.);
#653 = ORIENTED_EDGE('',*,*,#652,.T.);
#654 = EDGE_LOOP('',(#644,#648,#649,#653));
#655 = FACE_OUTER_BOUND('',#654,.T.);
#656 = AXIS2_PLACEMENT_3D('',#608,#508,#500);
#657 = PLANE('',#656);
#658 = ADVANCED_FACE('',(#655),#657,.T.);
#659 = ORIENTED_EDGE('',*,*,#626,.F.);
#660 = VECTOR('',#529,1.);
#661 = LINE('',#618,#660);
#662 = CARTESIAN_POINT('',(209.,101.,55.));
#663 = VERTEX_POINT('',#662);
#664 = EDGE_CURVE('',#619,#663,#661,.T.);
#665 = ORIENTED_EDGE('',*,*,#664,.T.);
#666 = VECTOR('',#515,1.);
#667 = LINE('',#662,#666);
#668 = CARTESIAN_POINT('',(3.,101.,55.));
#669 = VERTEX_POINT('',#668);
#670 = EDGE_CURVE('',#663,#669,#667,.T.);
#671 = ORIENTED_EDGE('',*,*,#670,.T.);
#672 = VECTOR('',#546,1.);
#673 = LINE('',#668,#672);
#674 = EDGE_CURVE('',#669,#625,#673,.T.);
#675 = ORIENTED_EDGE('',*,*,#674,.T.);
#676 = EDGE_LOOP('',(#659,#665,#671,#675));
#677 = FACE_OUTER_BOUND('',#676,.T.);
#678 = AXIS2_PLACEMENT_3D('',#624,#522,#500);
#679 = PLANE('',#678);
#680 = ADVANCED_FACE('',(#677),#679,.T.);
#681 = ORIENTED_EDGE('',*,*,#630,.F.);
#682 = ORIENTED_EDGE('',*,*,#674,.F.);
#683 = VECTOR('',#522,1.);
#684 = LINE('',#668,#683);
#685 = EDGE_CURVE('',#669,#640,#684,.T.);
#686 = ORIENTED_EDGE('',*,*,#685,.T.);
#687 = ORIENTED_EDGE('',*,*,#652,.F.);
#688 = EDGE_LOOP('',(#681,#682,#686,#687));
#689 = FACE_OUTER_BOUND('',#688,.T.);
#690 = AXIS2_PLACEMENT_3D('',#608,#500,#508);
#691 = PLANE('',#690);
#692 = ADVANCED_FACE('',(#689),#691,.T.);
#693 = VECTOR('',#508,1.);
#694 = LINE('',#641,#693);
#695 = EDGE_CURVE('',#642,#663,#694,.T.);
#696 = ORIENTED_EDGE('',*,*,#695,.T.);
#697 = ORIENTED_EDGE('',*,*,#664,.F.);
#698 = ORIENTED_EDGE('',*,*,#620,.F.);
#699 = ORIENTED_EDGE('',*,*,#647,.F.);
#700 = EDGE_LOOP('',(#696,#697,#698,#699));
#701 = FACE_OUTER_BOUND('',#700,.T.);
#702 = AXIS2_PLACEMENT_3D('',#612,#515,#508);
#703 = PLANE('',#702);
#704 = ADVANCED_FACE('',(#701),#703,.T.);
#705 = ORIENTED_EDGE('',*,*,#670,.F.);
#706 = ORIENTED_EDGE('',*,*,#695,.F.);
#707 = ORIENTED_EDGE('',*,*,#643,.F.);
#708 = ORIENTED_EDGE('',*,*,#685,.F.);
#709 = EDGE_LOOP('',(#705,#706,#707,#708));
#710 = FACE_OUTER_BOUND('',#709,.T.);
#711 = AXIS2_PLACEMENT_3D('',#637,#546,#500);
#712 = PLANE('',#711);
#713 = ADVANCED_FACE('',(#710),#712,.T.);
#714 = CLOSED_SHELL('',(#532,#555,#577,#589,#601,#636,#658,#680,#692,#704,#713));
#715 = MANIFOLD_SOLID_BREP('lid',#714);
#716 = PRODUCT('box_lid','box_lid','',(#3));
#717 = PRODUCT_RELATED_PRODUCT_CATEGORY('part',$,(#716));
#718 = PRODUCT_DEFINITION_FORMATION('','',#716);
#719 = PRODUCT_DEFINITION('design','',#718,#4);
#720 = PRODUCT_DEFINITION_SHAPE('','',#719);
#721 = ADVANCED_BREP_SHAPE_REPRESENTATION('',(#498,#715),#9);
#722 = SHAPE_DEFINITION_REPRESENTATION(#720,#721);
#723 = ITEM_DEFINED_TRANSFORMATION('','',#498,#17);
#724 = ( REPRESENTATION_RELATIONSHIP('','',#721,#27) REPRESENTATION_RELATIONSHIP_WITH_TRANSFORMATION(#723) SHAPE_REPRESENTATION_RELATIONSHIP() );
#725 = NEXT_ASSEMBLY_USAGE_OCCURRENCE('2','box_lid','',#25,#719,$);
#726 = PRODUCT_DEFINITION_SHAPE('Placement','Placement of an item',#725);
#727 = CONTEXT_DEPENDENT_SHAPE_REPRESENTATION(#724,#726);
ENDSEC;
END-ISO-10303-21;
