ISO-10303-21;
HEADER;
FILE_DESCRIPTION(('box'),'2;1');
FILE_NAME('box_body.step','2026-10-03T14:50:00',(''),(''),'','','');
FILE_SCHEMA(('AUTOMOTIVE_DESIGN { 1 0 10303 214 1 1 1 1 }'));
ENDSEC;
DATA;
#1 = APPLICATION_CONTEXT('core data for automotive mechanical design processes');
#2 = APPLICATION_PROTOCOL_DEFINITION('international standard','automotive_design',2000,#1);
#3 = PRODUCT_CONTEXT('',#1,'mechanical');
#4 = PRODUCT_DEFINITION_CONTEXT('part definition',#1,'design');
#5 = ( LENGTH_UNIT() NAMED_UNIT(*) SI_UNIT(.MILLI.,.METRE.) );
#6 = ( NAMED_UNIT(*) PLANE_ANGLE_UNIT() SI_UNIT($,.RADIAN.) );
#7 = ( NAMED_UNIT(*) SI_UNIT($,.STERADIAN.) SOLID_ANGLE_UNIT() );
#8 = UNCERTAINTY_MEASURE_WITH_UNIT(LENGTH_MEASURE(1.E-07),#5,'distance_accuracy_value','confusion accuracy');
#9 = ( GEOMETRIC_REPRESENTATION_CONTEXT(3) GLOBAL_UNCERTAINTY_ASSIGNED_CONTEXT((#8)) GLOBAL_UNIT_ASSIGNED_CONTEXT((#5,#6,#7)) REPRESENTATION_CONTEXT('Context #1','3D Context with UNIT and UNCERTAINTY') );
#10 = CARTESIAN_POINT('',(0.,0.,0.));
#11 = DIRECTION('',(0.,0.,1.));
#12 = DIRECTION('',(1.,0.,0.));
#13 = AXIS2_PLACEMENT_3D('',#10,#11,#12);
#14 = CARTESIAN_POINT('',(192.,0.,25.));
#15 = DIRECTION('',(0.,1.,0.));
#16 = DIRECTION('',(1.,0.,0.));
#17 = AXIS2_PLACEMENT_3D('',#14,#15,#16);
#18 = CIRCLE('',#17,5.);
#19 = CARTESIAN_POINT('',(197.,0.,25.));
#20 = VERTEX_POINT('',#19);
#21 = EDGE_CURVE('',#20,#20,#18,.T.);
#22 = CARTESIAN_POINT('',(192.,5.,25.));
#23 = AXIS2_PLACEMENT_3D('',#22,#15,#16);
#24 = CIRCLE('',#23,5.);
#25 = CARTESIAN_POINT('',(197.,5.,25.));
#26 = VERTEX_POINT('',#25);
#27 = EDGE_CURVE('',#26,#26,#24,.T.);
#28 = CARTESIAN_POINT('',(0.,104.,0.));
#29 = VECTOR('',#16,1.);
#30 = LINE('',#28,#29);
#31 = VERTEX_POINT('',#28);
#32 = CARTESIAN_POINT('',(212.,104.,0.));
#33 = VERTEX_POINT('',#32);
#34 = EDGE_CURVE('',#31,#33,#30,.T.);
#35 = ORIENTED_EDGE('',*,*,#34,.T.);
#36 = DIRECTION('',(0.,-1.,0.));
#37 = VECTOR('',#36,1.);
#38 = LINE('',#32,#37);
#39 = CARTESIAN_POINT('',(212.,0.,0.));
#40 = VERTEX_POINT('',#39);
#41 = EDGE_CURVE('',#33,#40,#38,.T.);
#42 = ORIENTED_EDGE('',*,*,#41,.T.);
#43 = DIRECTION('',(-1.,0.,0.));
#44 = VECTOR('',#43,1.);
#45 = LINE('',#39,#44);
#46 = CARTESIAN_POINT('',(0.,0.,0.));
#47 = VERTEX_POINT('',#46);
#48 = EDGE_CURVE('',#40,#47,#45,.T.);
#49 = ORIENTED_EDGE('',*,*,#48,.T.);
#50 = VECTOR('',#15,1.);
#51 = LINE('',#46,#50);
#52 = EDGE_CURVE('',#47,#31,#51,.T.);
#53 = ORIENTED_EDGE('',*,*,#52,.T.);
#54 = EDGE_LOOP('',(#35,#42,#49,#53));
#55 = FACE_OUTER_BOUND('',#54,.T.);
#56 = DIRECTION('',(0.,0.,-1.));
#57 = AXIS2_PLACEMENT_3D('',#46,#56,#16);
#58 = PLANE('',#57);
#59 = ADVANCED_FACE('',(#55),#58,.T.);
#60 = ORIENTED_EDGE('',*,*,#48,.F.);
#61 = DIRECTION('',(0.,0.,1.));
#62 = VECTOR('',#61,1.);
#63 = LINE('',#39,#62);
#64 = CARTESIAN_POINT('',(212.,0.,50.));
#65 = VERTEX_POINT('',#64);
#66 = EDGE_CURVE('',#40,#65,#63,.T.);
#67 = ORIENTED_EDGE('',*,*,#66,.T.);
#68 = VECTOR('',#43,1.);
#69 = LINE('',#64,#68);
#70 = CARTESIAN_POINT('',(0.,0.,50.));
#71 = VERTEX_POINT('',#70);
#72 = EDGE_CURVE('',#65,#71,#69,.T.);
#73 = ORIENTED_EDGE('',*,*,#72,.T.);
#74 = VECTOR('',#56,1.);
#75 = LINE('',#70,#74);
#76 = EDGE_CURVE('',#71,#47,#75,.T.);
#77 = ORIENTED_EDGE('',*,*,#76,.T.);
#78 = EDGE_LOOP('',(#60,#67,#73,#77));
#79 = FACE_OUTER_BOUND('',#78,.T.);
#80 = CARTESIAN_POINT('',(15.,0.,30.));
#81 = VECTOR('',#16,1.);
#82 = LINE('',#80,#81);
#83 = VERTEX_POINT('',#80);
#84 = CARTESIAN_POINT('',(25.,0.,30.));
#85 = VERTEX_POINT('',#84);
#86 = EDGE_CURVE('',#83,#85,#82,.T.);
#87 = ORIENTED_EDGE('',*,*,#86,.T.);
#88 = VECTOR('',#56,1.);
#89 = LINE('',#84,#88);
#90 = CARTESIAN_POINT('',(25.,0.,20.));
#91 = VERTEX_POINT('',#90);
#92 = EDGE_CURVE('',#85,#91,#89,.T.);
#93 = ORIENTED_EDGE('',*,*,#92,.T.);
#94 = VECTOR('',#43,1.);
#95 = LINE('',#90,#94);
#96 = CARTESIAN_POINT('',(15.,0.,20.));
#97 = VERTEX_POINT('',#96);
#98 = EDGE_CURVE('',#91,#97,#95,.T.);
#99 = ORIENTED_EDGE('',*,*,#98,.T.);
#100 = VECTOR('',#61,1.);
#101 = LINE('',#96,#100);
#102 = EDGE_CURVE('',#97,#83,#101,.T.);
#103 = ORIENTED_EDGE('',*,*,#102,.T.);
#104 = EDGE_LOOP('',(#87,#93,#99,#103));
#105 = FACE_BOUND('',#104,.T.);
#106 = ORIENTED_EDGE('',*,*,#21,.T.);
#107 = EDGE_LOOP('',(#106));
#108 = FACE_BOUND('',#107,.T.);
#109 = AXIS2_PLACEMENT_3D('',#46,#36,#16);
#110 = PLANE('',#109);
#111 = ADVANCED_FACE('',(#79,#105,#108),#110,.T.);
#112 = CARTESIAN_POINT('',(0.,104.,50.));
#113 = VECTOR('',#16,1.);
#114 = LINE('',#112,#113);
#115 = VERTEX_POINT('',#112);
#116 = CARTESIAN_POINT('',(212.,104.,50.));
#117 = VERTEX_POINT('',#116);
#118 = EDGE_CURVE('',#115,#117,#114,.T.);
#119 = ORIENTED_EDGE('',*,*,#118,.T.);
#120 = VECTOR('',#56,1.);
#121 = LINE('',#116,#120);
#122 = EDGE_CURVE('',#117,#33,#121,.T.);
#123 = ORIENTED_EDGE('',*,*,#122,.T.);
#124 = ORIENTED_EDGE('',*,*,#34,.F.);
#125 = VECTOR('',#61,1.);
#126 = LINE('',#28,#125);
#127 = EDGE_CURVE('',#31,#115,#126,.T.);
#128 = ORIENTED_EDGE('',*,*,#127,.T.);
#129 = EDGE_LOOP('',(#119,#123,#124,#128));
#130 = FACE_OUTER_BOUND('',#129,.T.);
#131 = AXIS2_PLACEMENT_3D('',#28,#15,#16);
#132 = PLANE('',#131);
#133 = ADVANCED_FACE('',(#130),#132,.T.);
#134 = VECTOR('',#15,1.);
#135 = LINE('',#70,#134);
#136 = EDGE_CURVE('',#71,#115,#135,.T.);
#137 = ORIENTED_EDGE('',*,*,#136,.T.);
#138 = ORIENTED_EDGE('',*,*,#127,.F.);
#139 = ORIENTED_EDGE('',*,*,#52,.F.);
#140 = ORIENTED_EDGE('',*,*,#76,.F.);
#141 = EDGE_LOOP('',(#137,#138,#139,#140));
#142 = FACE_OUTER_BOUND('',#141,.T.);
#143 = AXIS2_PLACEMENT_3D('',#46,#43,#15);
#144 = PLANE('',#143);
#145 = ADVANCED_FACE('',(#142),#144,.T.);
#146 = ORIENTED_EDGE('',*,*,#41,.F.);
#147 = ORIENTED_EDGE('',*,*,#122,.F.);
#148 = VECTOR('',#36,1.);
#149 = LINE('',#116,#148);
#150 = EDGE_CURVE('',#117,#65,#149,.T.);
#151 = ORIENTED_EDGE('',*,*,#150,.T.);
#152 = ORIENTED_EDGE('',*,*,#66,.F.);
#153 = EDGE_LOOP('',(#146,#147,#151,#152));
#154 = FACE_OUTER_BOUND('',#153,.T.);
#155 = AXIS2_PLACEMENT_3D('',#39,#16,#15);
#156 = PLANE('',#155);
#157 = ADVANCED_FACE('',(#154),#156,.T.);
#158 = ORIENTED_EDGE('',*,*,#72,.F.);
#159 = ORIENTED_EDGE('',*,*,#150,.F.);
#160 = ORIENTED_EDGE('',*,*,#118,.F.);
#161 = ORIENTED_EDGE('',*,*,#136,.F.);
#162 = EDGE_LOOP('',(#158,#159,#160,#161));
#163 = FACE_OUTER_BOUND('',#162,.T.);
#164 = CARTESIAN_POINT('',(3.,101.,50.));
#165 = VECTOR('',#16,1.);
#166 = LINE('',#164,#165);
#167 = VERTEX_POINT('',#164);
#168 = CARTESIAN_POINT('',(209.,101.,50.));
#169 = VERTEX_POINT('',#168);
#170 = EDGE_CURVE('',#167,#169,#166,.T.);
#171 = ORIENTED_EDGE('',*,*,#170,.T.);
#172 = VECTOR('',#36,1.);
#173 = LINE('',#168,#172);
#174 = CARTESIAN_POINT('',(209.,3.,50.));
#175 = VERTEX_POINT('',#174);
#176 = EDGE_CURVE('',#169,#175,#173,.T.);
#177 = ORIENTED_EDGE('',*,*,#176,.T.);
#178 = VECTOR('',#43,1.);
#179 = LINE('',#174,#178);
#180 = CARTESIAN_POINT('',(3.,3.,50.));
#181 = VERTEX_POINT('',#180);
#182 = EDGE_CURVE('',#175,#181,#179,.T.);
#183 = ORIENTED_EDGE('',*,*,#182,.T.);
#184 = VECTOR('',#15,1.);
#185 = LINE('',#180,#184);
#186 = EDGE_CURVE('',#181,#167,#185,.T.);
#187 = ORIENTED_EDGE('',*,*,#186,.T.);
#188 = EDGE_LOOP('',(#171,#177,#183,#187));
#189 = FACE_BOUND('',#188,.T.);
#190 = AXIS2_PLACEMENT_3D('',#70,#61,#16);
#191 = PLANE('',#190);
#192 = ADVANCED_FACE('',(#163,#189),#191,.T.);
#193 = ORIENTED_EDGE('',*,*,#182,.F.);
#194 = VECTOR('',#61,1.);
#195 = LINE('',#174,#194);
#196 = CARTESIAN_POINT('',(209.,3.,55.));
#197 = VERTEX_POINT('',#196);
#198 = EDGE_CURVE('',#175,#197,#195,.T.);
#199 = ORIENTED_EDGE('',*,*,#198,.T.);
#200 = VECTOR('',#43,1.);
#201 = LINE('',#196,#200);
#202 = CARTESIAN_POINT('',(3.,3.,55.));
#203 = VERTEX_POINT('',#202);
#204 = EDGE_CURVE('',#197,#203,#201,.T.);
#205 = ORIENTED_EDGE('',*,*,#204,.T.);
#206 = VECTOR('',#56,1.);
#207 = LINE('',#202,#206);
#208 = EDGE_CURVE('',#203,#181,#207,.T.);
#209 = ORIENTED_EDGE('',*,*,#208,.T.);
#210 = EDGE_LOOP('',(#193,#199,#205,#209));
#211 = FACE_OUTER_BOUND('',#210,.T.);
#212 = AXIS2_PLACEMENT_3D('',#180,#36,#16);
#213 = PLANE('',#212);
#214 = ADVANCED_FACE('',(#211),#213,.T.);
#215 = CARTESIAN_POINT('',(3.,101.,55.));
#216 = VECTOR('',#16,1.);
#217 = LINE('',#215,#216);
#218 = VERTEX_POINT('',#215);
#219 = CARTESIAN_POINT('',(209.,101.,55.));
#220 = VERTEX_POINT('',#219);
#221 = EDGE_CURVE('',#218,#220,#217,.T.);
#222 = ORIENTED_EDGE('',*,*,#221,.T.);
#223 = VECTOR('',#56,1.);
#224 = LINE('',#219,#223);
#225 = EDGE_CURVE('',#220,#169,#224,.T.);
#226 = ORIENTED_EDGE('',*,*,#225,.T.);
#227 = ORIENTED_EDGE('',*,*,#170,.F.);
#228 = VECTOR('',#61,1.);
#229 = LINE('',#164,#228);
#230 = EDGE_CURVE('',#167,#218,#229,.T.);
#231 = ORIENTED_EDGE('',*,*,#230,.T.);
#232 = EDGE_LOOP('',(#222,#226,#227,#231));
#233 = FACE_OUTER_BOUND('',#232,.T.);
#234 = AXIS2_PLACEMENT_3D('',#164,#15,#16);
#235 = PLANE('',#234);
#236 = ADVANCED_FACE('',(#233),#235,.T.);
#237 = VECTOR('',#15,1.);
#238 = LINE('',#202,#237);
#239 = EDGE_CURVE('',#203,#218,#238,.T.);
#240 = ORIENTED_EDGE('',*,*,#239,.T.);
#241 = ORIENTED_EDGE('',*,*,#230,.F.);
#242 = ORIENTED_EDGE('',*,*,#186,.F.);
#243 = ORIENTED_EDGE('',*,*,#208,.F.);
#244 = EDGE_LOOP('',(#240,#241,#242,#243));
#245 = FACE_OUTER_BOUND('',#244,.T.);
#246 = AXIS2_PLACEMENT_3D('',#180,#43,#15);
#247 = PLANE('',#246);
#248 = ADVANCED_FACE('',(#245),#247,.T.);
#249 = ORIENTED_EDGE('',*,*,#176,.F.);
#250 = ORIENTED_EDGE('',*,*,#225,.F.);
#251 = VECTOR('',#36,1.);
#252 = LINE('',#219,#251);
#253 = EDGE_CURVE('',#220,#197,#252,.T.);
#254 = ORIENTED_EDGE('',*,*,#253,.T.);
#255 = ORIENTED_EDGE('',*,*,#198,.F.);
#256 = EDGE_LOOP('',(#249,#250,#254,#255));
#257 = FACE_OUTER_BOUND('',#256,.T.);
#258 = AXIS2_PLACEMENT_3D('',#174,#16,#15);
#259 = PLANE('',#258);
#260 = ADVANCED_FACE('',(#257),#259,.T.);
#261 = ORIENTED_EDGE('',*,*,#204,.F.);
#262 = ORIENTED_EDGE('',*,*,#253,.F.);
#263 = ORIENTED_EDGE('',*,*,#221,.F.);
#264 = ORIENTED_EDGE('',*,*,#239,.F.);
#265 = EDGE_LOOP('',(#261,#262,#263,#264));
#266 = FACE_OUTER_BOUND('',#265,.T.);
#267 = CARTESIAN_POINT('',(5.,99.,55.));
#268 = VECTOR('',#16,1.);
#269 = LINE('',#267,#268);
#270 = VERTEX_POINT('',#267);
#271 = CARTESIAN_POINT('',(207.,99.,55.));
#272 = VERTEX_POINT('',#271);
#273 = EDGE_CURVE('',#270,#272,#269,.T.);
#274 = ORIENTED_EDGE('',*,*,#273,.T.);
#275 = VECTOR('',#36,1.);
#276 = LINE('',#271,#275);
#277 = CARTESIAN_POINT('',(207.,5.,55.));
#278 = VERTEX_POINT('',#277);
#279 = EDGE_CURVE('',#272,#278,#276,.T.);
#280 = ORIENTED_EDGE('',*,*,#279,.T.);
#281 = VECTOR('',#43,1.);
#282 = LINE('',#277,#281);
#283 = CARTESIAN_POINT('',(5.,5.,55.));
#284 = VERTEX_POINT('',#283);
#285 = EDGE_CURVE('',#278,#284,#282,.T.);
#286 = ORIENTED_EDGE('',*,*,#285,.T.);
#287 = VECTOR('',#15,1.);
#288 = LINE('',#283,#287);
#289 = EDGE_CURVE('',#284,#270,#288,.T.);
#290 = ORIENTED_EDGE('',*,*,#289,.T.);
#291 = EDGE_LOOP('',(#274,#280,#286,#290));
#292 = FACE_BOUND('',#291,.T.);
#293 = AXIS2_PLACEMENT_3D('',#202,#61,#16);
#294 = PLANE('',#293);
#295 = ADVANCED_FACE('',(#266,#292),#294,.T.);
#296 = ORIENTED_EDGE('',*,*,#285,.F.);
#297 = VECTOR('',#56,1.);
#298 = LINE('',#277,#297);
#299 = CARTESIAN_POINT('',(207.,5.,5.));
#300 = VERTEX_POINT('',#299);
#301 = EDGE_CURVE('',#278,#300,#298,.T.);
#302 = ORIENTED_EDGE('',*,*,#301,.T.);
#303 = VECTOR('',#43,1.);
#304 = LINE('',#299,#303);
#305 = CARTESIAN_POINT('',(5.,5.,5.));
#306 = VERTEX_POINT('',#305);
#307 = EDGE_CURVE('',#300,#306,#304,.T.);
#308 = ORIENTED_EDGE('',*,*,#307,.T.);
#309 = VECTOR('',#61,1.);
#310 = LINE('',#305,#309);
#311 = EDGE_CURVE('',#306,#284,#310,.T.);
#312 = ORIENTED_EDGE('',*,*,#311,.T.);
#313 = EDGE_LOOP('',(#296,#302,#308,#312));
#314 = FACE_OUTER_BOUND('',#313,.T.);
#315 = CARTESIAN_POINT('',(15.,5.,20.));
#316 = VECTOR('',#16,1.);
#317 = LINE('',#315,#316);
#318 = VERTEX_POINT('',#315);
#319 = CARTESIAN_POINT('',(25.,5.,20.));
#320 = VERTEX_POINT('',#319);
#321 = EDGE_CURVE('',#318,#320,#317,.T.);
#322 = ORIENTED_EDGE('',*,*,#321,.T.);
#323 = VECTOR('',#61,1.);
#324 = LINE('',#319,#323);
#325 = CARTESIAN_POINT('',(25.,5.,30.));
#326 = VERTEX_POINT('',#325);
#327 = EDGE_CURVE('',#320,#326,#324,.T.);
#328 = ORIENTED_EDGE('',*,*,#327,.T.);
#329 = VECTOR('',#43,1.);
#330 = LINE('',#325,#329);
#331 = CARTESIAN_POINT('',(15.,5.,30.));
#332 = VERTEX_POINT('',#331);
#333 = EDGE_CURVE('',#326,#332,#330,.T.);
#334 = ORIENTED_EDGE('',*,*,#333,.T.);
#335 = VECTOR('',#56,1.);
#336 = LINE('',#331,#335);
#337 = EDGE_CURVE('',#332,#318,#336,.T.);
#338 = ORIENTED_EDGE('',*,*,#337,.T.);
#339 = EDGE_LOOP('',(#322,#328,#334,#338));
#340 = FACE_BOUND('',#339,.T.);
#341 = ORIENTED_EDGE('',*,*,#27,.F.);
#342 = EDGE_LOOP('',(#341));
#343 = FACE_BOUND('',#342,.T.);
#344 = AXIS2_PLACEMENT_3D('',#305,#15,#16);
#345 = PLANE('',#344);
#346 = ADVANCED_FACE('',(#314,#340,#343),#345,.T.);
#347 = CARTESIAN_POINT('',(5.,99.,5.));
#348 = VECTOR('',#16,1.);
#349 = LINE('',#347,#348);
#350 = VERTEX_POINT('',#347);
#351 = CARTESIAN_POINT('',(207.,99.,5.));
#352 = VERTEX_POINT('',#351);
#353 = EDGE_CURVE('',#350,#352,#349,.T.);
#354 = ORIENTED_EDGE('',*,*,#353,.T.);
#355 = VECTOR('',#61,1.);
#356 = LINE('',#351,#355);
#357 = EDGE_CURVE('',#352,#272,#356,.T.);
#358 = ORIENTED_EDGE('',*,*,#357,.T.);
#359 = ORIENTED_EDGE('',*,*,#273,.F.);
#360 = VECTOR('',#56,1.);
#361 = LINE('',#267,#360);
#362 = EDGE_CURVE('',#270,#350,#361,.T.);
#363 = ORIENTED_EDGE('',*,*,#362,.T.);
#364 = EDGE_LOOP('',(#354,#358,#359,#363));
#365 = FACE_OUTER_BOUND('',#364,.T.);
#366 = AXIS2_PLACEMENT_3D('',#347,#36,#16);
#367 = PLANE('',#366);
#368 = ADVANCED_FACE('',(#365),#367,.T.);
#369 = VECTOR('',#15,1.);
#370 = LINE('',#305,#369);
#371 = EDGE_CURVE('',#306,#350,#370,.T.);
#372 = ORIENTED_EDGE('',*,*,#371,.T.);
#373 = ORIENTED_EDGE('',*,*,#362,.F.);
#374 = ORIENTED_EDGE('',*,*,#289,.F.);
#375 = ORIENTED_EDGE('',*,*,#311,.F.);
#376 = EDGE_LOOP('',(#372,#373,#374,#375));
#377 = FACE_OUTER_BOUND('',#376,.T.);
#378 = AXIS2_PLACEMENT_3D('',#305,#16,#15);
#379 = PLANE('',#378);
#380 = ADVANCED_FACE('',(#377),#379,.T.);
#381 = ORIENTED_EDGE('',*,*,#279,.F.);
#382 = ORIENTED_EDGE('',*,*,#357,.F.);
#383 = VECTOR('',#36,1.);
#384 = LINE('',#351,#383);
#385 = EDGE_CURVE('',#352,#300,#384,.T.);
#386 = ORIENTED_EDGE('',*,*,#385,.T.);
#387 = ORIENTED_EDGE('',*,*,#301,.F.);
#388 = EDGE_LOOP('',(#381,#382,#386,#387));
#389 = FACE_OUTER_BOUND('',#388,.T.);
#390 = AXIS2_PLACEMENT_3D('',#299,#43,#15);
#391 = PLANE('',#390);
#392 = ADVANCED_FACE('',(#389),#391,.T.);
#393 = ORIENTED_EDGE('',*,*,#307,.F.);
#394 = ORIENTED_EDGE('',*,*,#385,.F.);
#395 = ORIENTED_EDGE('',*,*,#353,.F.);
#396 = ORIENTED_EDGE('',*,*,#371,.F.);
#397 = EDGE_LOOP('',(#393,#394,#395,#396));
#398 = FACE_OUTER_BOUND('',#397,.T.);
#399 = AXIS2_PLACEMENT_3D('',#305,#61,#16);
#400 = PLANE('',#399);
#401 = ADVANCED_FACE('',(#398),#400,.T.);
#402 = VECTOR('',#15,1.);
#403 = LINE('',#96,#402);
#404 = EDGE_CURVE('',#97,#318,#403,.T.);
#405 = ORIENTED_EDGE('',*,*,#404,.T.);
#406 = ORIENTED_EDGE('',*,*,#337,.F.);
#407 = VECTOR('',#36,1.);
#408 = LINE('',#331,#407);
#409 = EDGE_CURVE('',#332,#83,#408,.T.);
#410 = ORIENTED_EDGE('',*,*,#409,.T.);
#411 = ORIENTED_EDGE('',*,*,#102,.F.);
#412 = EDGE_LOOP('',(#405,#406,#410,#411));
#413 = FACE_OUTER_BOUND('',#412,.T.);
#414 = AXIS2_PLACEMENT_3D('',#96,#16,#15);
#415 = PLANE('',#414);
#416 = ADVANCED_FACE('',(#413),#415,.T.);
#417 = VECTOR('',#15,1.);
#418 = LINE('',#84,#417);
#419 = EDGE_CURVE('',#85,#326,#418,.T.);
#420 = ORIENTED_EDGE('',*,*,#419,.T.);
#421 = ORIENTED_EDGE('',*,*,#327,.F.);
#422 = VECTOR('',#36,1.);
#423 = LINE('',#319,#422);
#424 = EDGE_CURVE('',#320,#91,#423,.T.);
#425 = ORIENTED_EDGE('',*,*,#424,.T.);
#426 = ORIENTED_EDGE('',*,*,#92,.F.);
#427 = EDGE_LOOP('',(#420,#421,#425,#426));
#428 = FACE_OUTER_BOUND('',#427,.T.);
#429 = AXIS2_PLACEMENT_3D('',#90,#43,#15);
#430 = PLANE('',#429);
#431 = ADVANCED_FACE('',(#428),#430,.T.);
#432 = ORIENTED_EDGE('',*,*,#98,.F.);
#433 = ORIENTED_EDGE('',*,*,#424,.F.);
#434 = ORIENTED_EDGE('',*,*,#321,.F.);
#435 = ORIENTED_EDGE('',*,*,#404,.F.);
#436 = EDGE_LOOP('',(#432,#433,#434,#435));
#437 = FACE_OUTER_BOUND('',#436,.T.);
#438 = AXIS2_PLACEMENT_3D('',#96,#61,#16);
#439 = PLANE('',#438);
#440 = ADVANCED_FACE('',(#437),#439,.T.);
#441 = ORIENTED_EDGE('',*,*,#333,.F.);
#442 = ORIENTED_EDGE('',*,*,#419,.F.);
#443 = ORIENTED_EDGE('',*,*,#86,.F.);
#444 = ORIENTED_EDGE('',*,*,#409,.F.);
#445 = EDGE_LOOP('',(#441,#442,#443,#444));
#446 = FACE_OUTER_BOUND('',#445,.T.);
#447 = AXIS2_PLACEMENT_3D('',#80,#56,#16);
#448 = PLANE('',#447);
#449 = ADVANCED_FACE('',(#446),#448,.T.);
#450 = VECTOR('',#15,1.);
#451 = LINE('',#19,#450);
#452 = EDGE_CURVE('',#20,#26,#451,.T.);
#453 = ORIENTED_EDGE('',*,*,#452,.T.);
#454 = ORIENTED_EDGE('',*,*,#27,.T.);
#455 = ORIENTED_EDGE('',*,*,#452,.F.);
#456 = ORIENTED_EDGE('',*,*,#21,.F.);
#457 = EDGE_LOOP('',(#453,#454,#455,#456));
#458 = AXIS2_PLACEMENT_3D('',#14,#15,#16);
#459 = CYLINDRICAL_SURFACE('',#458,5.);
#460 = FACE_OUTER_BOUND('',#457,.T.);
#461 = ADVANCED_FACE('',(#460),#459,.F.);
#462 = CLOSED_SHELL('',(#59,#111,#133,#145,#157,#192,#214,#236,#248,#260,#295,#346,#368,#380,#392,#401,#416,#431,#440,#449,#461));
#463 = MANIFOLD_SOLID_BREP('body',#462);
#464 = PRODUCT('box_body','box_body','',(#3));
#465 = PRODUCT_RELATED_PRODUCT_CATEGORY('part',$,(#464));
#466 = PRODUCT_DEFINITION_FORMATION('','',#464);
#467 = PRODUCT_DEFINITION('design','',#466,#4);
#468 = PRODUCT_DEFINITION_SHAPE('','',#467);
#469 = ADVANCED_BREP_SHAPE_REPRESENTATION('',(#13,#463),#9);
#470 = SHAPE_DEFINITION_REPRESENTATION(#468,#469);
ENDSEC;
END-ISO-10303-21;
