ISO-10303-21;
HEADER;
FILE_DESCRIPTION(('box'),'2;1');
FILE_NAME('box_lid.step','2026-10-03T14:50:00',(''),(''),'','','');
FILE_SCHEMA(('AUTOMOTIVE_DESIGN { 1 0 10303 214 1 1 1 1 }'));
ENDSEC;
DATA;
#1 = APPLICATION_CONTEXT('core data for automotive mechanical design processes');
#2 = APPLICATION_PROTOCOL_DEFINITION('international standard','automotive_design',2000,#1);
#3 = PRODUCT_CONTEXT('',#1,'mechanical');
#4 = PRODUCT_DEFINITION_CONTEXT('part definition',#1,'design');
#5 = ( LENGTH_UNIT() NAMED_UNIT(*) SI_UNIT(.MILLI.,.METRE.) );
#6 = ( NAMED_UNIT(*) PLANE_ANGLE_UNIT() SI_UNIT($,.RADIAN.) );
#7 = ( NAMED_UNIT(*) SI_UNIT($,.STERADIAN.) SOLID_ANGLE_UNIT() );
#8 = UNCERTAINTY_MEASURE_WITH_UNIT(LENGTH_MEASURE(1.E-07),#5,'distance_accuracy_value','confusion accuracy');
#9 = ( GEOMETRIC_REPRESENTATION_CONTEXT(3) GLOBAL_UNCERTAINTY_ASSIGNED_CONTEXT((#8)) GLOBAL_UNIT_ASSIGNED_CONTEXT((#5,#6,#7)) REPRESENTATION_CONTEXT('Context #1','3D Context with UNIT and UNCERTAINTY') );
#10 = CARTESIAN_POINT('',(0.,0.,0.));
#11 = DIRECTION('',(0.,0.,1.));
#12 = DIRECTION('',(1.,0.,0.));
#13 = AXIS2_PLACEMENT_3D('',#10,#11,#12);
#14 = CARTESIAN_POINT('',(0.,0.,10.));
#15 = DIRECTION('',(1.,0.,0.));
#16 = VECTOR('',#15,1.);
#17 = LINE('',#14,#16);
#18 = VERTEX_POINT('',#14);
#19 = CARTESIAN_POINT('',(212.,0.,10.));
#20 = VERTEX_POINT('',#19);
#21 = EDGE_CURVE('',#18,#20,#17,.T.);
#22 = ORIENTED_EDGE('',*,*,#21,.T.);
#23 = DIRECTION('',(0.,1.,0.));
#24 = VECTOR('',#23,1.);
#25 = LINE('',#19,#24);
#26 = CARTESIAN_POINT('',(212.,104.,10.));
#27 = VERTEX_POINT('',#26);
#28 = EDGE_CURVE('',#20,#27,#25,.T.);
#29 = ORIENTED_EDGE('',*,*,#28,.T.);
#30 = DIRECTION('',(-1.,0.,0.));
#31 = VECTOR('',#30,1.);
#32 = LINE('',#26,#31);
#33 = CARTESIAN_POINT('',(0.,104.,10.));
#34 = VERTEX_POINT('',#33);
#35 = EDGE_CURVE('',#27,#34,#32,.T.);
#36 = ORIENTED_EDGE('',*,*,#35,.T.);
#37 = DIRECTION('',(0.,-1.,0.));
#38 = VECTOR('',#37,1.);
#39 = LINE('',#33,#38);
#40 = EDGE_CURVE('',#34,#18,#39,.T.);
#41 = ORIENTED_EDGE('',*,*,#40,.T.);
#42 = EDGE_LOOP('',(#22,#29,#36,#41));
#43 = FACE_OUTER_BOUND('',#42,.T.);
#44 = DIRECTION('',(0.,0.,1.));
#45 = AXIS2_PLACEMENT_3D('',#14,#44,#15);
#46 = PLANE('',#45);
#47 = ADVANCED_FACE('',(#43),#46,.T.);
#48 = CARTESIAN_POINT('',(0.,0.,0.));
#49 = VECTOR('',#15,1.);
#50 = LINE('',#48,#49);
#51 = VERTEX_POINT('',#48);
#52 = CARTESIAN_POINT('',(212.,0.,0.));
#53 = VERTEX_POINT('',#52);
#54 = EDGE_CURVE('',#51,#53,#50,.T.);
#55 = ORIENTED_EDGE('',*,*,#54,.T.);
#56 = VECTOR('',#44,1.);
#57 = LINE('',#52,#56);
#58 = EDGE_CURVE('',#53,#20,#57,.T.);
#59 = ORIENTED_EDGE('',*,*,#58,.T.);
#60 = ORIENTED_EDGE('',*,*,#21,.F.);
#61 = DIRECTION('',(0.,0.,-1.));
#62 = VECTOR('',#61,1.);
#63 = LINE('',#14,#62);
#64 = EDGE_CURVE('',#18,#51,#63,.T.);
#65 = ORIENTED_EDGE('',*,*,#64,.T.);
#66 = EDGE_LOOP('',(#55,#59,#60,#65));
#67 = FACE_OUTER_BOUND('',#66,.T.);
#68 = AXIS2_PLACEMENT_3D('',#48,#37,#15);
#69 = PLANE('',#68);
#70 = ADVANCED_FACE('',(#67),#69,.T.);
#71 = ORIENTED_EDGE('',*,*,#35,.F.);
#72 = VECTOR('',#61,1.);
#73 = LINE('',#26,#72);
#74 = CARTESIAN_POINT('',(212.,104.,0.));
#75 = VERTEX_POINT('',#74);
#76 = EDGE_CURVE('',#27,#75,#73,.T.);
#77 = ORIENTED_EDGE('',*,*,#76,.T.);
#78 = VECTOR('',#30,1.);
#79 = LINE('',#74,#78);
#80 = CARTESIAN_POINT('',(0.,104.,0.));
#81 = VERTEX_POINT('',#80);
#82 = EDGE_CURVE('',#75,#81,#79,.T.);
#83 = ORIENTED_EDGE('',*,*,#82,.T.);
#84 = VECTOR('',#44,1.);
#85 = LINE('',#80,#84);
#86 = EDGE_CURVE('',#81,#34,#85,.T.);
#87 = ORIENTED_EDGE('',*,*,#86,.T.);
#88 = EDGE_LOOP('',(#71,#77,#83,#87));
#89 = FACE_OUTER_BOUND('',#88,.T.);
#90 = AXIS2_PLACEMENT_3D('',#80,#23,#15);
#91 = PLANE('',#90);
#92 = ADVANCED_FACE('',(#89),#91,.T.);
#93 = ORIENTED_EDGE('',*,*,#40,.F.);
#94 = ORIENTED_EDGE('',*,*,#86,.F.);
#95 = VECTOR('',#37,1.);
#96 = LINE('',#80,#95);
#97 = EDGE_CURVE('',#81,#51,#96,.T.);
#98 = ORIENTED_EDGE('',*,*,#97,.T.);
#99 = ORIENTED_EDGE('',*,*,#64,.F.);
#100 = EDGE_LOOP('',(#93,#94,#98,#99));
#101 = FACE_OUTER_BOUND('',#100,.T.);
#102 = AXIS2_PLACEMENT_3D('',#48,#30,#23);
#103 = PLANE('',#102);
#104 = ADVANCED_FACE('',(#101),#103,.T.);
#105 = VECTOR('',#23,1.);
#106 = LINE('',#52,#105);
#107 = EDGE_CURVE('',#53,#75,#106,.T.);
#108 = ORIENTED_EDGE('',*,*,#107,.T.);
#109 = ORIENTED_EDGE('',*,*,#76,.F.);
#110 = ORIENTED_EDGE('',*,*,#28,.F.);
#111 = ORIENTED_EDGE('',*,*,#58,.F.);
#112 = EDGE_LOOP('',(#108,#109,#110,#111));
#113 = FACE_OUTER_BOUND('',#112,.T.);
#114 = AXIS2_PLACEMENT_3D('',#52,#15,#23);
#115 = PLANE('',#114);
#116 = ADVANCED_FACE('',(#113),#115,.T.);
#117 = ORIENTED_EDGE('',*,*,#82,.F.);
#118 = ORIENTED_EDGE('',*,*,#107,.F.);
#119 = ORIENTED_EDGE('',*,*,#54,.F.);
#120 = ORIENTED_EDGE('',*,*,#97,.F.);
#121 = EDGE_LOOP('',(#117,#118,#119,#120));
#122 = FACE_OUTER_BOUND('',#121,.T.);
#123 = CARTESIAN_POINT('',(3.,3.,0.));
#124 = VECTOR('',#15,1.);
#125 = LINE('',#123,#124);
#126 = VERTEX_POINT('',#123);
#127 = CARTESIAN_POINT('',(209.,3.,0.));
#128 = VERTEX_POINT('',#127);
#129 = EDGE_CURVE('',#126,#128,#125,.T.);
#130 = ORIENTED_EDGE('',*,*,#129,.T.);
#131 = VECTOR('',#23,1.);
#132 = LINE('',#127,#131);
#133 = CARTESIAN_POINT('',(209.,101.,0.));
#134 = VERTEX_POINT('',#133);
#135 = EDGE_CURVE('',#128,#134,#132,.T.);
#136 = ORIENTED_EDGE('',*,*,#135,.T.);
#137 = VECTOR('',#30,1.);
#138 = LINE('',#133,#137);
#139 = CARTESIAN_POINT('',(3.,101.,0.));
#140 = VERTEX_POINT('',#139);
#141 = EDGE_CURVE('',#134,#140,#138,.T.);
#142 = ORIENTED_EDGE('',*,*,#141,.T.);
#143 = VECTOR('',#37,1.);
#144 = LINE('',#139,#143);
#145 = EDGE_CURVE('',#140,#126,#144,.T.);
#146 = ORIENTED_EDGE('',*,*,#145,.T.);
#147 = EDGE_LOOP('',(#130,#136,#142,#146));
#148 = FACE_BOUND('',#147,.T.);
#149 = AXIS2_PLACEMENT_3D('',#48,#61,#15);
#150 = PLANE('',#149);
#151 = ADVANCED_FACE('',(#122,#148),#150,.T.);
#152 = CARTESIAN_POINT('',(3.,3.,5.));
#153 = VECTOR('',#15,1.);
#154 = LINE('',#152,#153);
#155 = VERTEX_POINT('',#152);
#156 = CARTESIAN_POINT('',(209.,3.,5.));
#157 = VERTEX_POINT('',#156);
#158 = EDGE_CURVE('',#155,#157,#154,.T.);
#159 = ORIENTED_EDGE('',*,*,#158,.T.);
#160 = VECTOR('',#61,1.);
#161 = LINE('',#156,#160);
#162 = EDGE_CURVE('',#157,#128,#161,.T.);
#163 = ORIENTED_EDGE('',*,*,#162,.T.);
#164 = ORIENTED_EDGE('',*,*,#129,.F.);
#165 = VECTOR('',#44,1.);
#166 = LINE('',#123,#165);
#167 = EDGE_CURVE('',#126,#155,#166,.T.);
#168 = ORIENTED_EDGE('',*,*,#167,.T.);
#169 = EDGE_LOOP('',(#159,#163,#164,#168));
#170 = FACE_OUTER_BOUND('',#169,.T.);
#171 = AXIS2_PLACEMENT_3D('',#123,#23,#15);
#172 = PLANE('',#171);
#173 = ADVANCED_FACE('',(#170),#172,.T.);
#174 = ORIENTED_EDGE('',*,*,#141,.F.);
#175 = VECTOR('',#44,1.);
#176 = LINE('',#133,#175);
#177 = CARTESIAN_POINT('',(209.,101.,5.));
#178 = VERTEX_POINT('',#177);
#179 = EDGE_CURVE('',#134,#178,#176,.T.);
#180 = ORIENTED_EDGE('',*,*,#179,.T.);
#181 = VECTOR('',#30,1.);
#182 = LINE('',#177,#181);
#183 = CARTESIAN_POINT('',(3.,101.,5.));
#184 = VERTEX_POINT('',#183);
#185 = EDGE_CURVE('',#178,#184,#182,.T.);
#186 = ORIENTED_EDGE('',*,*,#185,.T.);
#187 = VECTOR('',#61,1.);
#188 = LINE('',#183,#187);
#189 = EDGE_CURVE('',#184,#140,#188,.T.);
#190 = ORIENTED_EDGE('',*,*,#189,.T.);
#191 = EDGE_LOOP('',(#174,#180,#186,#190));
#192 = FACE_OUTER_BOUND('',#191,.T.);
#193 = AXIS2_PLACEMENT_3D('',#139,#37,#15);
#194 = PLANE('',#193);
#195 = ADVANCED_FACE('',(#192),#194,.T.);
#196 = ORIENTED_EDGE('',*,*,#145,.F.);
#197 = ORIENTED_EDGE('',*,*,#189,.F.);
#198 = VECTOR('',#37,1.);
#199 = LINE('',#183,#198);
#200 = EDGE_CURVE('',#184,#155,#199,.T.);
#201 = ORIENTED_EDGE('',*,*,#200,.T.);
#202 = ORIENTED_EDGE('',*,*,#167,.F.);
#203 = EDGE_LOOP('',(#196,#197,#201,#202));
#204 = FACE_OUTER_BOUND('',#203,.T.);
#205 = AXIS2_PLACEMENT_3D('',#123,#15,#23);
#206 = PLANE('',#205);
#207 = ADVANCED_FACE('',(#204),#206,.T.);
#208 = VECTOR('',#23,1.);
#209 = LINE('',#156,#208);
#210 = EDGE_CURVE('',#157,#178,#209,.T.);
#211 = ORIENTED_EDGE('',*,*,#210,.T.);
#212 = ORIENTED_EDGE('',*,*,#179,.F.);
#213 = ORIENTED_EDGE('',*,*,#135,.F.);
#214 = ORIENTED_EDGE('',*,*,#162,.F.);
#215 = EDGE_LOOP('',(#211,#212,#213,#214));
#216 = FACE_OUTER_BOUND('',#215,.T.);
#217 = AXIS2_PLACEMENT_3D('',#127,#30,#23);
#218 = PLANE('',#217);
#219 = ADVANCED_FACE('',(#216),#218,.T.);
#220 = ORIENTED_EDGE('',*,*,#185,.F.);
#221 = ORIENTED_EDGE('',*,*,#210,.F.);
#222 = ORIENTED_EDGE('',*,*,#158,.F.);
#223 = ORIENTED_EDGE('',*,*,#200,.F.);
#224 = EDGE_LOOP('',(#220,#221,#222,#223));
#225 = FACE_OUTER_BOUND('',#224,.T.);
#226 = AXIS2_PLACEMENT_3D('',#152,#61,#15);
#227 = PLANE('',#226);
#228 = ADVANCED_FACE('',(#225),#227,.T.);
#229 = CLOSED_SHELL('',(#47,#70,#92,#104,#116,#151,#173,#195,#207,#219,#228));
#230 = MANIFOLD_SOLID_BREP('lid',#229);
#231 = PRODUCT('box_lid','box_lid','',(#3));
#232 = PRODUCT_RELATED_PRODUCT_CATEGORY('part',$,(#231));
#233 = PRODUCT_DEFINITION_FORMATION('','',#231);
#234 = PRODUCT_DEFINITION('design','',#233,#4);
#235 = PRODUCT_DEFINITION_SHAPE('','',#234);
#236 = ADVANCED_BREP_SHAPE_REPRESENTATION('',(#13,#230),#9);
#237 = SHAPE_DEFINITION_REPRESENTATION(#235,#236);
ENDSEC;
END-ISO-10303-21;
